<?xml version="1.0" encoding="UTF-8"?>
<svg version="1.1" xmlns="http://www.w3.org/2000/svg" width="1006" height="1006">
<path d="M0 0 C0.68971071 -0.00145344 1.37942142 -0.00290688 2.09003246 -0.00440437 C4.43025694 -0.00809024 6.77041734 -0.00456607 9.11064148 -0.0011425 C10.79371073 -0.0022933 12.47677974 -0.00388054 14.15984821 -0.00586975 C18.80750712 -0.01006874 23.45514566 -0.00796982 28.10280466 -0.00488353 C33.1062627 -0.00263195 38.10971711 -0.00610782 43.11317444 -0.00886345 C52.92391759 -0.01332275 62.73465311 -0.01234397 72.54539657 -0.00945081 C80.51495028 -0.0071974 88.48450185 -0.00688398 96.45405579 -0.00797462 C98.15194055 -0.00820447 98.15194055 -0.00820447 99.88412601 -0.00843897 C102.18321474 -0.00875867 104.48230348 -0.00908289 106.78139222 -0.00941156 C128.36751351 -0.01226682 149.95363057 -0.00897861 171.53975117 -0.00361119 C190.08348431 0.00085689 208.62721119 0.00008097 227.17094421 -0.00452995 C248.67696199 -0.0098749 270.18297606 -0.01199212 291.68899441 -0.00891769 C293.97988319 -0.00859912 296.27077198 -0.00828475 298.56166077 -0.00797462 C300.2526427 -0.00774321 300.2526427 -0.00774321 301.97778589 -0.00750712 C309.94277715 -0.00664173 317.90776606 -0.00810532 325.87275696 -0.01045418 C335.57222262 -0.0132515 345.27168019 -0.01251536 354.97114491 -0.00717343 C359.92508213 -0.0045355 364.87900583 -0.0035329 369.83294296 -0.00682259 C374.36033292 -0.00978367 378.88769669 -0.00819591 383.41508424 -0.00284503 C385.06041766 -0.00172004 386.70575326 -0.00231383 388.35108531 -0.00472082 C390.57266134 -0.00772365 392.79414548 -0.00468156 395.01571655 0 C396.25420192 0.00016235 397.49268728 0.0003247 398.76870251 0.00049198 C401.50785828 0.12584114 401.50785828 0.12584114 402.50785828 1.12584114 C404.8577309 1.36111887 407.21341866 1.53970531 409.57035828 1.68834114 C410.86070984 1.7721302 412.1510614 1.85591927 413.48051453 1.94224739 C414.97904968 2.0331263 414.97904968 2.0331263 416.50785828 2.12584114 C416.50785828 2.78584114 416.50785828 3.44584114 416.50785828 4.12584114 C419.14785828 4.12584114 421.78785828 4.12584114 424.50785828 4.12584114 C424.50785828 4.78584114 424.50785828 5.44584114 424.50785828 6.12584114 C426.05473328 6.03302864 426.05473328 6.03302864 427.63285828 5.93834114 C431.80780836 6.14035485 433.88669152 7.15781573 437.50785828 9.12584114 C440.24358412 9.82491528 440.24358412 9.82491528 442.50785828 10.12584114 C442.50785828 10.78584114 442.50785828 11.44584114 442.50785828 12.12584114 C444.48785828 12.12584114 446.46785828 12.12584114 448.50785828 12.12584114 C448.50785828 12.78584114 448.50785828 13.44584114 448.50785828 14.12584114 C449.82785828 14.12584114 451.14785828 14.12584114 452.50785828 14.12584114 C452.50785828 14.78584114 452.50785828 15.44584114 452.50785828 16.12584114 C453.82785828 16.12584114 455.14785828 16.12584114 456.50785828 16.12584114 C456.50785828 16.78584114 456.50785828 17.44584114 456.50785828 18.12584114 C457.82785828 18.12584114 459.14785828 18.12584114 460.50785828 18.12584114 C460.50785828 18.78584114 460.50785828 19.44584114 460.50785828 20.12584114 C461.04410828 20.22896614 461.58035828 20.33209114 462.13285828 20.43834114 C465.13287871 21.30676811 467.74581177 22.68204411 470.50785828 24.12584114 C470.50785828 24.78584114 470.50785828 25.44584114 470.50785828 26.12584114 C471.82785828 26.12584114 473.14785828 26.12584114 474.50785828 26.12584114 C474.50785828 26.78584114 474.50785828 27.44584114 474.50785828 28.12584114 C475.16785828 28.12584114 475.82785828 28.12584114 476.50785828 28.12584114 C476.50785828 28.78584114 476.50785828 29.44584114 476.50785828 30.12584114 C477.43598328 30.34240364 477.43598328 30.34240364 478.38285828 30.56334114 C480.50785828 31.12584114 480.50785828 31.12584114 482.50785828 32.12584114 C482.50785828 32.78584114 482.50785828 33.44584114 482.50785828 34.12584114 C483.16785828 34.12584114 483.82785828 34.12584114 484.50785828 34.12584114 C484.50785828 34.78584114 484.50785828 35.44584114 484.50785828 36.12584114 C485.16785828 36.12584114 485.82785828 36.12584114 486.50785828 36.12584114 C486.50785828 36.78584114 486.50785828 37.44584114 486.50785828 38.12584114 C487.16785828 38.12584114 487.82785828 38.12584114 488.50785828 38.12584114 C488.50785828 38.78584114 488.50785828 39.44584114 488.50785828 40.12584114 C489.16785828 40.12584114 489.82785828 40.12584114 490.50785828 40.12584114 C490.50785828 40.78584114 490.50785828 41.44584114 490.50785828 42.12584114 C491.43598328 42.34240364 491.43598328 42.34240364 492.38285828 42.56334114 C494.50785828 43.12584114 494.50785828 43.12584114 496.50785828 44.12584114 C496.50785828 44.78584114 496.50785828 45.44584114 496.50785828 46.12584114 C497.16785828 46.12584114 497.82785828 46.12584114 498.50785828 46.12584114 C498.50785828 46.78584114 498.50785828 47.44584114 498.50785828 48.12584114 C499.16785828 48.12584114 499.82785828 48.12584114 500.50785828 48.12584114 C500.50785828 48.78584114 500.50785828 49.44584114 500.50785828 50.12584114 C501.16785828 50.12584114 501.82785828 50.12584114 502.50785828 50.12584114 C502.50785828 50.78584114 502.50785828 51.44584114 502.50785828 52.12584114 C503.16785828 52.12584114 503.82785828 52.12584114 504.50785828 52.12584114 C505.16785828 54.10584114 505.82785828 56.08584114 506.50785828 58.12584114 C507.16785828 58.12584114 507.82785828 58.12584114 508.50785828 58.12584114 C508.50785828 58.78584114 508.50785828 59.44584114 508.50785828 60.12584114 C509.16785828 60.12584114 509.82785828 60.12584114 510.50785828 60.12584114 C510.50785828 60.78584114 510.50785828 61.44584114 510.50785828 62.12584114 C511.16785828 62.12584114 511.82785828 62.12584114 512.50785828 62.12584114 C512.50785828 63.44584114 512.50785828 64.76584114 512.50785828 66.12584114 C513.16785828 66.12584114 513.82785828 66.12584114 514.50785828 66.12584114 C514.50785828 66.78584114 514.50785828 67.44584114 514.50785828 68.12584114 C515.16785828 68.12584114 515.82785828 68.12584114 516.50785828 68.12584114 C517.16785828 70.10584114 517.82785828 72.08584114 518.50785828 74.12584114 C519.16785828 74.12584114 519.82785828 74.12584114 520.50785828 74.12584114 C520.50785828 75.44584114 520.50785828 76.76584114 520.50785828 78.12584114 C521.16785828 78.12584114 521.82785828 78.12584114 522.50785828 78.12584114 C523.16785828 80.10584114 523.82785828 82.08584114 524.50785828 84.12584114 C525.16785828 84.12584114 525.82785828 84.12584114 526.50785828 84.12584114 C526.50785828 85.44584114 526.50785828 86.76584114 526.50785828 88.12584114 C527.16785828 88.12584114 527.82785828 88.12584114 528.50785828 88.12584114 C528.50785828 89.44584114 528.50785828 90.76584114 528.50785828 92.12584114 C529.16785828 92.12584114 529.82785828 92.12584114 530.50785828 92.12584114 C530.50785828 93.44584114 530.50785828 94.76584114 530.50785828 96.12584114 C531.16785828 96.12584114 531.82785828 96.12584114 532.50785828 96.12584114 C532.81529968 97.1912513 532.81529968 97.1912513 533.12895203 98.27818489 C533.39836609 99.19728645 533.66778015 100.11638802 533.94535828 101.06334114 C534.21219421 101.97986458 534.47903015 102.89638802 534.75395203 103.84068489 C535.29811879 106.06609044 535.29811879 106.06609044 536.50785828 107.12584114 C536.54878765 109.45881547 536.55027551 111.79289339 536.50785828 114.12584114 C537.16785828 114.12584114 537.82785828 114.12584114 538.50785828 114.12584114 C538.65223328 115.26021614 538.79660828 116.39459114 538.94535828 117.56334114 C539.11957305 120.93361315 539.11957305 120.93361315 540.50785828 122.12584114 C540.58029881 124.14548313 540.59163016 126.16751238 540.57035828 128.18834114 C540.56133484 129.2930677 540.5523114 130.39779427 540.54301453 131.53599739 C540.52561218 132.81797005 540.52561218 132.81797005 540.50785828 134.12584114 C541.16785828 134.12584114 541.82785828 134.12584114 542.50785828 134.12584114 C542.56844421 135.31822395 542.62903015 136.51060677 542.69145203 137.73912239 C542.77586976 139.30554039 542.86051715 140.87194602 542.94535828 142.43834114 C543.00433289 143.61686653 543.00433289 143.61686653 543.0644989 144.81920052 C543.10639343 145.57652473 543.14828796 146.33384895 543.19145203 147.11412239 C543.2464386 148.15886726 543.2464386 148.15886726 543.30253601 149.22471809 C543.4636698 151.34749834 543.4636698 151.34749834 544.50785828 154.12584114 C544.60163516 155.95724856 544.63778785 157.79204101 544.63285828 159.62584114 C544.6354364 160.58490364 544.63801453 161.54396614 544.64067078 162.53209114 C544.50785828 165.12584114 544.50785828 165.12584114 543.50785828 168.12584114 C543.41716439 169.91039198 543.38590493 171.69820086 543.38760376 173.48505402 C543.38554224 175.16404189 543.38554224 175.16404189 543.38343906 176.87694871 C543.38703403 178.11217983 543.39062899 179.34741095 543.39433289 180.62007332 C543.39418403 181.92873033 543.39403517 183.23738734 543.3938818 184.58570063 C543.39358544 188.22773111 543.39953343 191.86972919 543.4064517 195.51175213 C543.41281472 199.4391283 543.41339431 203.36650565 543.41462708 207.29388618 C543.4175199 214.11343976 543.42397184 220.93298256 543.43269348 227.75253105 C543.44527891 237.67020448 543.45133315 247.58787394 543.45562685 257.50555404 C543.46270715 273.67195495 543.47350721 289.83835091 543.48735046 306.00474739 C543.48817828 306.97306069 543.48900609 307.941374 543.48985898 308.93903013 C543.49741486 317.73791612 543.50521192 326.5368019 543.51306152 335.33568764 C543.51822835 341.13325177 543.52333092 346.93081596 543.52836609 352.7283802 C543.52960828 354.15633071 543.52960828 354.15633071 543.53087556 355.61312871 C543.5447073 371.65852419 543.55439186 387.70391975 543.56127644 403.74931967 C543.56530232 412.72768077 543.57144258 421.70603051 543.58302307 430.6843853 C543.62444749 463.25215555 543.65843251 495.81467813 543.06645203 528.37828255 C543.04692034 529.5133363 543.02738865 530.64839006 543.00726509 531.81783938 C542.95175146 534.92633788 542.88877189 538.03456326 542.82206726 541.14283943 C542.805548 542.05202008 542.78902874 542.96120072 542.7720089 543.89793229 C542.62409351 550.0096059 542.62409351 550.0096059 541.50785828 551.12584114 C541.30010267 552.78788601 541.14067573 554.45613605 541.00785828 556.12584114 C540.61896939 561.01473003 540.61896939 561.01473003 539.50785828 562.12584114 C539.34285828 563.28084114 539.17785828 564.43584114 539.00785828 565.62584114 C538.50785828 569.12584114 538.50785828 569.12584114 537.50785828 570.12584114 C537.36348328 571.15709114 537.21910828 572.18834114 537.07035828 573.25084114 C536.51606658 577.06929506 535.63371816 580.44803219 534.50785828 584.12584114 C533.84785828 584.12584114 533.18785828 584.12584114 532.50785828 584.12584114 C532.50785828 585.44584114 532.50785828 586.76584114 532.50785828 588.12584114 C531.84785828 588.12584114 531.18785828 588.12584114 530.50785828 588.12584114 C530.50785828 589.44584114 530.50785828 590.76584114 530.50785828 592.12584114 C529.84785828 592.12584114 529.18785828 592.12584114 528.50785828 592.12584114 C528.35317078 593.14677864 528.35317078 593.14677864 528.19535828 594.18834114 C527.36060809 597.75500103 526.01313073 600.78806308 524.50785828 604.12584114 C523.84785828 604.12584114 523.18785828 604.12584114 522.50785828 604.12584114 C522.50785828 605.44584114 522.50785828 606.76584114 522.50785828 608.12584114 C521.84785828 608.12584114 521.18785828 608.12584114 520.50785828 608.12584114 C519.84785828 610.10584114 519.18785828 612.08584114 518.50785828 614.12584114 C517.84785828 614.12584114 517.18785828 614.12584114 516.50785828 614.12584114 C516.36348328 614.74459114 516.21910828 615.36334114 516.07035828 616.00084114 C515.50785828 618.12584114 515.50785828 618.12584114 514.50785828 620.12584114 C513.84785828 620.12584114 513.18785828 620.12584114 512.50785828 620.12584114 C512.50785828 620.78584114 512.50785828 621.44584114 512.50785828 622.12584114 C511.84785828 622.12584114 511.18785828 622.12584114 510.50785828 622.12584114 C510.36348328 622.74459114 510.21910828 623.36334114 510.07035828 624.00084114 C509.50785828 626.12584114 509.50785828 626.12584114 508.50785828 628.12584114 C507.84785828 628.12584114 507.18785828 628.12584114 506.50785828 628.12584114 C506.50785828 628.78584114 506.50785828 629.44584114 506.50785828 630.12584114 C505.84785828 630.12584114 505.18785828 630.12584114 504.50785828 630.12584114 C504.50785828 630.78584114 504.50785828 631.44584114 504.50785828 632.12584114 C503.84785828 632.12584114 503.18785828 632.12584114 502.50785828 632.12584114 C502.50785828 632.78584114 502.50785828 633.44584114 502.50785828 634.12584114 C501.84785828 634.12584114 501.18785828 634.12584114 500.50785828 634.12584114 C500.50785828 634.78584114 500.50785828 635.44584114 500.50785828 636.12584114 C499.84785828 636.12584114 499.18785828 636.12584114 498.50785828 636.12584114 C498.50785828 636.78584114 498.50785828 637.44584114 498.50785828 638.12584114 C497.84785828 638.12584114 497.18785828 638.12584114 496.50785828 638.12584114 C496.50785828 638.78584114 496.50785828 639.44584114 496.50785828 640.12584114 C495.84785828 640.12584114 495.18785828 640.12584114 494.50785828 640.12584114 C494.50785828 640.78584114 494.50785828 641.44584114 494.50785828 642.12584114 C493.84785828 642.12584114 493.18785828 642.12584114 492.50785828 642.12584114 C492.50785828 642.78584114 492.50785828 643.44584114 492.50785828 644.12584114 C491.84785828 644.12584114 491.18785828 644.12584114 490.50785828 644.12584114 C490.50785828 644.78584114 490.50785828 645.44584114 490.50785828 646.12584114 C489.84785828 646.12584114 489.18785828 646.12584114 488.50785828 646.12584114 C488.50785828 646.78584114 488.50785828 647.44584114 488.50785828 648.12584114 C487.84785828 648.12584114 487.18785828 648.12584114 486.50785828 648.12584114 C486.50785828 648.78584114 486.50785828 649.44584114 486.50785828 650.12584114 C485.18785828 650.12584114 483.86785828 650.12584114 482.50785828 650.12584114 C482.50785828 650.78584114 482.50785828 651.44584114 482.50785828 652.12584114 C481.84785828 652.12584114 481.18785828 652.12584114 480.50785828 652.12584114 C480.50785828 652.78584114 480.50785828 653.44584114 480.50785828 654.12584114 C479.84785828 654.12584114 479.18785828 654.12584114 478.50785828 654.12584114 C478.50785828 654.78584114 478.50785828 655.44584114 478.50785828 656.12584114 C475.50785828 658.12584114 475.50785828 658.12584114 472.50785828 658.12584114 C472.50785828 658.78584114 472.50785828 659.44584114 472.50785828 660.12584114 C471.18785828 660.12584114 469.86785828 660.12584114 468.50785828 660.12584114 C468.50785828 660.78584114 468.50785828 661.44584114 468.50785828 662.12584114 C467.84785828 662.12584114 467.18785828 662.12584114 466.50785828 662.12584114 C466.50785828 662.78584114 466.50785828 663.44584114 466.50785828 664.12584114 C465.18785828 664.12584114 463.86785828 664.12584114 462.50785828 664.12584114 C462.50785828 664.78584114 462.50785828 665.44584114 462.50785828 666.12584114 C461.18785828 666.12584114 459.86785828 666.12584114 458.50785828 666.12584114 C458.50785828 666.78584114 458.50785828 667.44584114 458.50785828 668.12584114 C457.18785828 668.12584114 455.86785828 668.12584114 454.50785828 668.12584114 C454.50785828 668.78584114 454.50785828 669.44584114 454.50785828 670.12584114 C453.18785828 670.12584114 451.86785828 670.12584114 450.50785828 670.12584114 C450.50785828 670.78584114 450.50785828 671.44584114 450.50785828 672.12584114 C449.18785828 672.12584114 447.86785828 672.12584114 446.50785828 672.12584114 C446.50785828 672.78584114 446.50785828 673.44584114 446.50785828 674.12584114 C442.88812426 675.44210806 440.41218697 676.12584114 436.50785828 676.12584114 C436.50785828 676.78584114 436.50785828 677.44584114 436.50785828 678.12584114 C434.52785828 678.12584114 432.54785828 678.12584114 430.50785828 678.12584114 C430.50785828 678.78584114 430.50785828 679.44584114 430.50785828 680.12584114 C427.86785828 680.12584114 425.22785828 680.12584114 422.50785828 680.12584114 C422.50785828 680.78584114 422.50785828 681.44584114 422.50785828 682.12584114 C421.79758484 682.18642708 421.0873114 682.24701302 420.35551453 682.30943489 C419.43641296 682.39322395 418.5173114 682.47701302 417.57035828 682.56334114 C416.65383484 682.64455208 415.7373114 682.72576302 414.79301453 682.80943489 C412.54626096 682.8862909 412.54626096 682.8862909 411.50785828 684.12584114 C408.66813292 684.44935416 405.82712091 684.63888404 402.97660828 684.84459114 C400.56649777 684.85969379 400.56649777 684.85969379 399.50785828 686.12584114 C397.37785924 686.22474477 395.2445081 686.25139846 393.11221409 686.25168228 C392.43293322 686.25313572 391.75365234 686.25458916 391.0537872 686.25608665 C388.74903213 686.25977242 386.44434213 686.25624839 384.1395874 686.25282478 C382.48197964 686.25397559 380.82437213 686.25556284 379.16676515 686.25755203 C374.5894462 686.26175098 370.01214793 686.25965212 365.43482888 686.25656581 C360.50701701 686.2543142 355.57920885 686.25779014 350.65139771 686.26054573 C340.98871033 686.2650051 331.3260307 686.2640262 321.66334302 686.26113309 C313.81345847 686.25887958 305.96357611 686.25856631 298.11369133 686.25965691 C296.44121791 686.25988676 296.44121791 686.25988676 294.73495714 686.26012125 C292.47025613 686.26044096 290.20555513 686.26076517 287.94085412 686.26109384 C266.67708217 686.26394915 245.41331452 686.26066088 224.14954328 686.25529347 C205.88527177 686.250826 187.62100662 686.2516008 169.35673523 686.25621223 C148.17336006 686.26155815 126.98998866 686.26367381 105.80661291 686.26059997 C103.54968894 686.2602814 101.29276496 686.25996703 99.03584099 686.25965691 C97.92524507 686.25950263 96.81464916 686.25934836 95.67039882 686.2591894 C87.826103 686.25832426 79.98180957 686.25978709 72.13751411 686.26213646 C62.58337027 686.26493488 53.02923466 686.26419534 43.47509176 686.25885572 C38.59596543 686.25621917 33.71685283 686.25521284 28.83772659 686.25850487 C24.3775162 686.26146883 19.91733236 686.25987332 15.4571244 686.25452732 C13.83734503 686.25340355 12.21756345 686.25399342 10.59778548 686.2564031 C8.40827226 686.25941231 6.21885185 686.25635712 4.02934361 686.25168228 C2.80946454 686.25151993 1.58958547 686.25135758 0.33274037 686.2511903 C-2.49214172 686.12584114 -2.49214172 686.12584114 -4.49214172 685.12584114 C-6.36270964 684.89833964 -8.2390013 684.71621304 -10.11714172 684.56334114 C-11.12003235 684.47955208 -12.12292297 684.39576302 -13.15620422 684.30943489 C-13.9270636 684.24884895 -14.69792297 684.18826302 -15.49214172 684.12584114 C-15.49214172 683.46584114 -15.49214172 682.80584114 -15.49214172 682.12584114 C-17.44120422 682.15677864 -17.44120422 682.15677864 -19.42964172 682.18834114 C-20.78379806 682.20983569 -22.13970255 682.19732313 -23.49214172 682.12584114 C-23.82214172 681.79584114 -24.15214172 681.46584114 -24.49214172 681.12584114 C-26.00683621 680.8939125 -27.52968734 680.71368876 -29.05464172 680.56334114 C-29.88093079 680.47955208 -30.70721985 680.39576302 -31.55854797 680.30943489 C-32.19663391 680.24884895 -32.83471985 680.18826302 -33.49214172 680.12584114 C-33.49214172 679.46584114 -33.49214172 678.80584114 -33.49214172 678.12584114 C-34.54401672 678.21865364 -34.54401672 678.21865364 -35.61714172 678.31334114 C-39.16201536 678.08215373 -41.36033609 676.75698991 -44.49214172 675.12584114 C-47.22786757 674.426767 -47.22786757 674.426767 -49.49214172 674.12584114 C-49.49214172 673.46584114 -49.49214172 672.80584114 -49.49214172 672.12584114 C-50.81214172 672.12584114 -52.13214172 672.12584114 -53.49214172 672.12584114 C-53.49214172 671.46584114 -53.49214172 670.80584114 -53.49214172 670.12584114 C-54.81214172 670.12584114 -56.13214172 670.12584114 -57.49214172 670.12584114 C-57.49214172 669.46584114 -57.49214172 668.80584114 -57.49214172 668.12584114 C-58.81214172 668.12584114 -60.13214172 668.12584114 -61.49214172 668.12584114 C-61.49214172 667.46584114 -61.49214172 666.80584114 -61.49214172 666.12584114 C-62.15214172 666.12584114 -62.81214172 666.12584114 -63.49214172 666.12584114 C-63.49214172 665.46584114 -63.49214172 664.80584114 -63.49214172 664.12584114 C-64.81214172 664.12584114 -66.13214172 664.12584114 -67.49214172 664.12584114 C-67.49214172 663.46584114 -67.49214172 662.80584114 -67.49214172 662.12584114 C-68.11089172 661.98146614 -68.72964172 661.83709114 -69.36714172 661.68834114 C-71.49214172 661.12584114 -71.49214172 661.12584114 -73.49214172 660.12584114 C-73.49214172 659.46584114 -73.49214172 658.80584114 -73.49214172 658.12584114 C-74.11089172 657.98146614 -74.72964172 657.83709114 -75.36714172 657.68834114 C-77.49214172 657.12584114 -77.49214172 657.12584114 -79.49214172 656.12584114 C-79.49214172 655.46584114 -79.49214172 654.80584114 -79.49214172 654.12584114 C-80.81214172 654.12584114 -82.13214172 654.12584114 -83.49214172 654.12584114 C-83.49214172 653.46584114 -83.49214172 652.80584114 -83.49214172 652.12584114 C-84.15214172 652.12584114 -84.81214172 652.12584114 -85.49214172 652.12584114 C-85.49214172 651.46584114 -85.49214172 650.80584114 -85.49214172 650.12584114 C-87.47214172 649.46584114 -89.45214172 648.80584114 -91.49214172 648.12584114 C-91.49214172 647.46584114 -91.49214172 646.80584114 -91.49214172 646.12584114 C-92.15214172 646.12584114 -92.81214172 646.12584114 -93.49214172 646.12584114 C-93.49214172 645.46584114 -93.49214172 644.80584114 -93.49214172 644.12584114 C-94.15214172 644.12584114 -94.81214172 644.12584114 -95.49214172 644.12584114 C-95.49214172 643.46584114 -95.49214172 642.80584114 -95.49214172 642.12584114 C-96.15214172 642.12584114 -96.81214172 642.12584114 -97.49214172 642.12584114 C-97.49214172 641.46584114 -97.49214172 640.80584114 -97.49214172 640.12584114 C-98.15214172 640.12584114 -98.81214172 640.12584114 -99.49214172 640.12584114 C-99.49214172 639.46584114 -99.49214172 638.80584114 -99.49214172 638.12584114 C-100.15214172 638.12584114 -100.81214172 638.12584114 -101.49214172 638.12584114 C-101.49214172 637.46584114 -101.49214172 636.80584114 -101.49214172 636.12584114 C-102.15214172 636.12584114 -102.81214172 636.12584114 -103.49214172 636.12584114 C-103.49214172 635.46584114 -103.49214172 634.80584114 -103.49214172 634.12584114 C-104.15214172 634.12584114 -104.81214172 634.12584114 -105.49214172 634.12584114 C-105.49214172 633.46584114 -105.49214172 632.80584114 -105.49214172 632.12584114 C-106.15214172 632.12584114 -106.81214172 632.12584114 -107.49214172 632.12584114 C-107.49214172 631.46584114 -107.49214172 630.80584114 -107.49214172 630.12584114 C-108.15214172 630.12584114 -108.81214172 630.12584114 -109.49214172 630.12584114 C-111.49214172 627.12584114 -111.49214172 627.12584114 -111.49214172 624.12584114 C-112.15214172 624.12584114 -112.81214172 624.12584114 -113.49214172 624.12584114 C-113.49214172 623.46584114 -113.49214172 622.80584114 -113.49214172 622.12584114 C-114.15214172 622.12584114 -114.81214172 622.12584114 -115.49214172 622.12584114 C-115.49214172 621.46584114 -115.49214172 620.80584114 -115.49214172 620.12584114 C-116.15214172 620.12584114 -116.81214172 620.12584114 -117.49214172 620.12584114 C-117.49214172 618.80584114 -117.49214172 617.48584114 -117.49214172 616.12584114 C-118.15214172 616.12584114 -118.81214172 616.12584114 -119.49214172 616.12584114 C-119.49214172 615.46584114 -119.49214172 614.80584114 -119.49214172 614.12584114 C-120.15214172 614.12584114 -120.81214172 614.12584114 -121.49214172 614.12584114 C-121.49214172 612.80584114 -121.49214172 611.48584114 -121.49214172 610.12584114 C-122.15214172 610.12584114 -122.81214172 610.12584114 -123.49214172 610.12584114 C-123.49214172 609.46584114 -123.49214172 608.80584114 -123.49214172 608.12584114 C-124.15214172 608.12584114 -124.81214172 608.12584114 -125.49214172 608.12584114 C-125.49214172 606.80584114 -125.49214172 605.48584114 -125.49214172 604.12584114 C-126.15214172 604.12584114 -126.81214172 604.12584114 -127.49214172 604.12584114 C-127.49214172 602.80584114 -127.49214172 601.48584114 -127.49214172 600.12584114 C-128.15214172 600.12584114 -128.81214172 600.12584114 -129.49214172 600.12584114 C-129.49214172 598.80584114 -129.49214172 597.48584114 -129.49214172 596.12584114 C-130.15214172 596.12584114 -130.81214172 596.12584114 -131.49214172 596.12584114 C-131.49214172 594.80584114 -131.49214172 593.48584114 -131.49214172 592.12584114 C-132.15214172 592.12584114 -132.81214172 592.12584114 -133.49214172 592.12584114 C-133.49214172 590.80584114 -133.49214172 589.48584114 -133.49214172 588.12584114 C-134.15214172 588.12584114 -134.81214172 588.12584114 -135.49214172 588.12584114 C-135.49214172 586.14584114 -135.49214172 584.16584114 -135.49214172 582.12584114 C-136.15214172 582.12584114 -136.81214172 582.12584114 -137.49214172 582.12584114 C-137.67389954 581.42459114 -137.85565735 580.72334114 -138.04292297 580.00084114 C-139.21541925 575.57541928 -140.37532501 571.23954783 -142.11714172 567.00084114 C-143.57382098 563.33638238 -143.99893107 559.82921758 -144.28120422 555.91099739 C-144.30795404 554.10361361 -144.30795404 554.10361361 -145.49214172 553.12584114 C-145.70157782 551.15074241 -145.86017994 549.17012432 -145.99214172 547.18834114 C-146.16949256 543.00416699 -146.16949256 543.00416699 -147.49214172 539.12584114 C-147.58849976 536.9641642 -147.61769344 534.79941402 -147.61798286 532.63559055 C-147.61943631 531.95823299 -147.62088975 531.28087542 -147.62238723 530.58299187 C-147.6260653 528.29081066 -147.62255249 525.99869519 -147.61912537 523.70651436 C-147.62027647 522.05558044 -147.62186392 520.40464679 -147.62385261 518.75371367 C-147.62804737 514.19952656 -147.62595458 509.64536026 -147.62286639 505.09117305 C-147.62061313 500.18657465 -147.62409152 495.28197995 -147.62684631 490.37738228 C-147.63130369 480.76262604 -147.63032771 471.14787759 -147.62743367 461.53312104 C-147.62517965 453.72282086 -147.62486711 445.91252286 -147.62595749 438.10222244 C-147.62611072 436.99263765 -147.62626396 435.88305286 -147.62642183 434.73984428 C-147.62674154 432.48609308 -147.62706575 430.23234188 -147.62739442 427.97859067 C-147.63024909 406.82262242 -147.62696233 385.66665848 -147.62159406 364.51069093 C-147.61712541 346.33707673 -147.61790247 328.16346891 -147.62251282 309.98985481 C-147.62785776 288.91049248 -147.62997505 267.83113395 -147.62690055 246.75177103 C-147.62658199 244.50639538 -147.62626762 242.26101973 -147.62595749 240.01564407 C-147.62580321 238.91073065 -147.62564894 237.80581723 -147.62548999 236.66742159 C-147.62462464 228.86121674 -147.62608808 221.05501429 -147.62843704 213.24880981 C-147.63123432 203.74333668 -147.63049828 194.23787181 -147.6251563 184.73239964 C-147.6225184 179.87769343 -147.62151571 175.02300103 -147.62480545 170.16829491 C-147.62776658 165.73161538 -147.6261787 161.29496257 -147.6208279 156.85828549 C-147.61970293 155.24595618 -147.62029664 153.63362464 -147.62270369 152.02129673 C-147.62570663 149.84424841 -147.6226643 147.66729385 -147.61798286 145.49025059 C-147.61782051 144.2766094 -147.61765816 143.06296821 -147.61749089 141.81255001 C-147.49214172 139.12584114 -147.49214172 139.12584114 -146.49214172 138.12584114 C-146.28376753 136.29677879 -146.12464513 134.4619598 -145.99214172 132.62584114 C-145.60325283 127.23695225 -145.60325283 127.23695225 -144.49214172 126.12584114 C-144.36839172 124.95021614 -144.24464172 123.77459114 -144.11714172 122.56334114 C-143.69242198 118.7477138 -142.67260206 115.52255516 -141.21089172 111.98521614 C-140.4646942 110.05483559 -139.95579072 108.14093103 -139.49214172 106.12584114 C-138.83214172 106.12584114 -138.17214172 106.12584114 -137.49214172 106.12584114 C-137.53339172 105.40396614 -137.57464172 104.68209114 -137.61714172 103.93834114 C-137.48292867 100.91854745 -136.74043553 98.85648385 -135.49214172 96.12584114 C-134.83214172 96.12584114 -134.17214172 96.12584114 -133.49214172 96.12584114 C-133.49214172 94.80584114 -133.49214172 93.48584114 -133.49214172 92.12584114 C-132.83214172 92.12584114 -132.17214172 92.12584114 -131.49214172 92.12584114 C-131.34776672 91.36271614 -131.20339172 90.59959114 -131.05464172 89.81334114 C-130.49214172 87.12584114 -130.49214172 87.12584114 -129.49214172 84.12584114 C-128.83214172 84.12584114 -128.17214172 84.12584114 -127.49214172 84.12584114 C-127.49214172 82.80584114 -127.49214172 81.48584114 -127.49214172 80.12584114 C-126.83214172 80.12584114 -126.17214172 80.12584114 -125.49214172 80.12584114 C-125.49214172 78.80584114 -125.49214172 77.48584114 -125.49214172 76.12584114 C-124.83214172 76.12584114 -124.17214172 76.12584114 -123.49214172 76.12584114 C-123.34776672 75.50709114 -123.20339172 74.88834114 -123.05464172 74.25084114 C-122.49214172 72.12584114 -122.49214172 72.12584114 -121.49214172 70.12584114 C-120.83214172 70.12584114 -120.17214172 70.12584114 -119.49214172 70.12584114 C-119.34776672 69.50709114 -119.20339172 68.88834114 -119.05464172 68.25084114 C-118.49214172 66.12584114 -118.49214172 66.12584114 -117.49214172 64.12584114 C-116.83214172 64.12584114 -116.17214172 64.12584114 -115.49214172 64.12584114 C-115.49214172 63.46584114 -115.49214172 62.80584114 -115.49214172 62.12584114 C-114.83214172 62.12584114 -114.17214172 62.12584114 -113.49214172 62.12584114 C-113.34776672 61.50709114 -113.20339172 60.88834114 -113.05464172 60.25084114 C-112.49214172 58.12584114 -112.49214172 58.12584114 -111.49214172 56.12584114 C-110.83214172 56.12584114 -110.17214172 56.12584114 -109.49214172 56.12584114 C-109.49214172 55.46584114 -109.49214172 54.80584114 -109.49214172 54.12584114 C-108.83214172 54.12584114 -108.17214172 54.12584114 -107.49214172 54.12584114 C-107.49214172 53.46584114 -107.49214172 52.80584114 -107.49214172 52.12584114 C-106.83214172 52.12584114 -106.17214172 52.12584114 -105.49214172 52.12584114 C-105.49214172 51.46584114 -105.49214172 50.80584114 -105.49214172 50.12584114 C-104.83214172 50.12584114 -104.17214172 50.12584114 -103.49214172 50.12584114 C-103.49214172 49.46584114 -103.49214172 48.80584114 -103.49214172 48.12584114 C-102.83214172 48.12584114 -102.17214172 48.12584114 -101.49214172 48.12584114 C-101.49214172 47.46584114 -101.49214172 46.80584114 -101.49214172 46.12584114 C-100.83214172 46.12584114 -100.17214172 46.12584114 -99.49214172 46.12584114 C-99.49214172 45.46584114 -99.49214172 44.80584114 -99.49214172 44.12584114 C-98.83214172 44.12584114 -98.17214172 44.12584114 -97.49214172 44.12584114 C-97.49214172 43.46584114 -97.49214172 42.80584114 -97.49214172 42.12584114 C-96.83214172 42.12584114 -96.17214172 42.12584114 -95.49214172 42.12584114 C-95.49214172 41.46584114 -95.49214172 40.80584114 -95.49214172 40.12584114 C-94.83214172 40.12584114 -94.17214172 40.12584114 -93.49214172 40.12584114 C-93.49214172 39.46584114 -93.49214172 38.80584114 -93.49214172 38.12584114 C-92.83214172 38.12584114 -92.17214172 38.12584114 -91.49214172 38.12584114 C-91.49214172 37.46584114 -91.49214172 36.80584114 -91.49214172 36.12584114 C-88.49214172 34.12584114 -88.49214172 34.12584114 -85.49214172 34.12584114 C-85.49214172 33.46584114 -85.49214172 32.80584114 -85.49214172 32.12584114 C-84.83214172 32.12584114 -84.17214172 32.12584114 -83.49214172 32.12584114 C-83.49214172 31.46584114 -83.49214172 30.80584114 -83.49214172 30.12584114 C-81.51214172 29.46584114 -79.53214172 28.80584114 -77.49214172 28.12584114 C-77.49214172 27.46584114 -77.49214172 26.80584114 -77.49214172 26.12584114 C-74.49214172 24.12584114 -74.49214172 24.12584114 -71.49214172 24.12584114 C-71.49214172 23.46584114 -71.49214172 22.80584114 -71.49214172 22.12584114 C-70.17214172 22.12584114 -68.85214172 22.12584114 -67.49214172 22.12584114 C-67.49214172 21.46584114 -67.49214172 20.80584114 -67.49214172 20.12584114 C-66.17214172 20.12584114 -64.85214172 20.12584114 -63.49214172 20.12584114 C-63.49214172 19.46584114 -63.49214172 18.80584114 -63.49214172 18.12584114 C-62.17214172 18.12584114 -60.85214172 18.12584114 -59.49214172 18.12584114 C-59.49214172 17.46584114 -59.49214172 16.80584114 -59.49214172 16.12584114 C-58.17214172 16.12584114 -56.85214172 16.12584114 -55.49214172 16.12584114 C-55.49214172 15.46584114 -55.49214172 14.80584114 -55.49214172 14.12584114 C-54.17214172 14.12584114 -52.85214172 14.12584114 -51.49214172 14.12584114 C-51.49214172 13.46584114 -51.49214172 12.80584114 -51.49214172 12.12584114 C-50.17214172 12.12584114 -48.85214172 12.12584114 -47.49214172 12.12584114 C-47.49214172 11.46584114 -47.49214172 10.80584114 -47.49214172 10.12584114 C-45.51214172 10.12584114 -43.53214172 10.12584114 -41.49214172 10.12584114 C-41.49214172 9.46584114 -41.49214172 8.80584114 -41.49214172 8.12584114 C-39.51214172 8.12584114 -37.53214172 8.12584114 -35.49214172 8.12584114 C-35.49214172 7.46584114 -35.49214172 6.80584114 -35.49214172 6.12584114 C-30.73551014 4.60776723 -26.28968905 3.78529846 -21.31245422 3.37193489 C-19.47504184 3.31074056 -19.47504184 3.31074056 -18.49214172 2.12584114 C-15.65241637 1.80232813 -12.81140436 1.61279824 -9.96089172 1.40709114 C-6.34125541 0.99472751 -4.07275629 0.0005339 0 0 Z " fill="#FDFDFD" transform="translate(296.4921417236328,150.87415885925293)"/>
<path d="M0 0 C0.92743515 -0.00700928 1.8548703 -0.01401855 2.81040955 -0.02124023 C5.87138959 -0.03882262 8.93144244 -0.02719542 11.99243164 -0.01367188 C14.12325721 -0.01636694 16.25408159 -0.02024948 18.38490295 -0.02526855 C22.84949458 -0.03116414 27.31376594 -0.02259933 31.77832031 -0.00390625 C37.49608107 0.01886922 43.21309022 0.00576912 48.93082333 -0.01819611 C53.3309544 -0.0326641 57.7309079 -0.02804319 62.13104439 -0.01768494 C64.23893892 -0.01501972 66.34684966 -0.01828019 68.45472527 -0.02760315 C71.4038436 -0.03778343 74.35175276 -0.02224584 77.30078125 0 C78.16902527 -0.00809692 79.03726929 -0.01619385 79.93182373 -0.02453613 C85.31591471 0.05055065 88.47073851 0.88871199 92.71508789 4.51757812 C94.03540039 7.15429688 94.03540039 7.15429688 94.84008789 10.20507812 C95.15204102 11.35492188 95.46399414 12.50476563 95.78540039 13.68945312 C96.9535003 18.49927626 98.11100877 23.31086312 99.21337891 28.13623047 C100.50773218 33.77958535 102.03220055 39.33159095 103.68774414 44.88085938 C104.71508789 48.51757812 104.71508789 48.51757812 105.14550781 51.42700195 C106.10165195 57.51632581 106.10165195 57.51632581 109.72460938 62.24194336 C112.40372979 63.59540079 115.06159203 64.61162065 117.90258789 65.58007812 C119.98075988 66.3812751 122.05754014 67.18608949 124.13305664 67.99414062 C125.21119629 68.39922852 126.28933594 68.80431641 127.40014648 69.22167969 C132.94896187 71.39085866 138.32096037 73.93062143 143.71508789 76.45507812 C145.67271221 77.3615588 147.63100717 78.26659308 149.59008789 79.16992188 C150.47180664 79.57710449 151.35352539 79.98428711 152.26196289 80.40380859 C154.44216829 81.39366698 156.63303639 82.34346856 158.84008789 83.27148438 C161.71508789 84.51757812 161.71508789 84.51757812 162.71508789 85.51757812 C163.03149414 87.84179688 163.03149414 87.84179688 162.71508789 90.51757812 C160.99243164 92.47460938 160.99243164 92.47460938 158.65258789 94.33007812 C154.17377514 98.05180878 150.44681599 102.06393834 146.71508789 106.51757812 C145.71508789 107.51757812 145.71508789 107.51757812 142.46508789 107.89257812 C138.71508789 107.51757812 138.71508789 107.51757812 136.69555664 105.35351562 C132.7616181 101.15800807 127.41363561 99.15781272 122.27758789 96.76757812 C120.63185791 95.98640625 120.63185791 95.98640625 118.95288086 95.18945312 C110.61226781 91.27743114 102.15452274 87.70880316 93.53369141 84.45996094 C92.67831787 84.12834961 91.82294434 83.79673828 90.94165039 83.45507812 C90.1947998 83.17535156 89.44794922 82.895625 88.6784668 82.60742188 C85.28136753 80.72174031 84.01192345 78.41706524 82.8112793 74.77880859 C82.56555176 73.74127441 82.31982422 72.70374023 82.06665039 71.63476562 C81.6452478 69.89549805 81.6452478 69.89549805 81.21533203 68.12109375 C80.92650146 66.89068359 80.6376709 65.66027344 80.34008789 64.39257812 C79.72881684 61.85823826 79.11553237 59.32438319 78.50024414 56.79101562 C78.20005371 55.5519043 77.89986328 54.31279297 77.59057617 53.03613281 C76.23856025 47.60243135 74.72265852 42.21899588 73.13745117 36.84912109 C72.18203156 33.5445219 71.71508789 31.00182338 71.71508789 27.51757812 C50.26508789 27.84757812 28.81508789 28.17757812 6.71508789 28.51757812 C3.25008789 42.87257813 3.25008789 42.87257813 -0.28491211 57.51757812 C-5.87347186 78.77602111 -5.87347186 78.77602111 -10.28491211 81.51757812 C-12.23573525 82.41638669 -14.21506724 83.25444523 -16.21069336 84.04882812 C-17.38937988 84.52481445 -18.56806641 85.00080078 -19.7824707 85.49121094 C-20.71624542 85.86469666 -20.71624542 85.86469666 -21.66888428 86.24572754 C-33.00686284 90.78350255 -44.10073709 95.60492329 -54.96191406 101.21484375 C-59.90497578 103.694871 -63.63869732 105.46831532 -69.28491211 104.51757812 C-72.32814366 103.28168384 -75.12638641 101.71285306 -77.97241211 100.08007812 C-79.64177882 99.16532942 -81.31375028 98.25532126 -82.98803711 97.34960938 C-83.85106445 96.88248535 -84.7140918 96.41536133 -85.60327148 95.93408203 C-90.07832831 93.57025467 -94.62990689 91.39241825 -99.22241211 89.26757812 C-100.06827881 88.86095947 -100.91414551 88.45434082 -101.78564453 88.03540039 C-102.57817627 87.67373779 -103.37070801 87.3120752 -104.18725586 86.93945312 C-104.88326904 86.61557617 -105.57928223 86.29169922 -106.29638672 85.95800781 C-108.29302097 85.34233137 -108.29302097 85.34233137 -110.23120117 86.12890625 C-112.8931494 87.92885412 -114.99118411 90.01942844 -117.24194336 92.31445312 C-117.70799484 92.78570618 -118.17404633 93.25695923 -118.65422058 93.74249268 C-120.14014331 95.24615652 -121.61921173 96.75632512 -123.09741211 98.26757812 C-134.83619756 110.22909256 -134.83619756 110.22909256 -141.28491211 115.51757812 C-139.97447769 119.77095739 -138.34413374 123.55675228 -136.23803711 127.47460938 C-135.63991211 128.58771484 -135.04178711 129.70082031 -134.42553711 130.84765625 C-133.80163086 131.99685547 -133.17772461 133.14605469 -132.53491211 134.33007812 C-131.92647461 135.46767578 -131.31803711 136.60527344 -130.69116211 137.77734375 C-127.19000745 144.25971663 -123.49641652 150.47359333 -119.28491211 156.51757812 C-117.28491211 159.51757812 -117.28491211 159.51757812 -117.28491211 162.51757812 C-118.40423917 163.63690518 -119.5301014 164.7500978 -120.67871094 165.83935547 C-127.9043461 173.38898552 -133.00095399 182.85865338 -138.09741211 191.89257812 C-138.75760904 193.05308181 -139.41841448 194.21323954 -140.07983398 195.37304688 C-141.28779951 197.49284746 -142.49300306 199.6142265 -143.69433594 201.73779297 C-144.48167114 203.11378662 -144.48167114 203.11378662 -145.28491211 204.51757812 C-145.66115723 205.38946777 -146.03740234 206.26135742 -146.42504883 207.15966797 C-149.30973623 210.81683664 -152.99522664 211.63779518 -157.33569336 213.03320312 C-158.22725632 213.33450134 -159.11881927 213.63579956 -160.03739929 213.94622803 C-161.92173831 214.57955457 -163.80895009 215.20438858 -165.69873047 215.82128906 C-168.58188734 216.76250999 -171.45622399 217.72733301 -174.32983398 218.69726562 C-176.16465506 219.31063867 -177.99992778 219.92266269 -179.83569336 220.53320312 C-180.69213943 220.81858948 -181.54858551 221.10397583 -182.4309845 221.39801025 C-183.24169907 221.66208679 -184.05241364 221.92616333 -184.88769531 222.19824219 C-185.59368362 222.42964905 -186.29967194 222.66105591 -187.02705383 222.8994751 C-189.73247506 223.64010132 -192.51811123 224.05644465 -195.28491211 224.51757812 C-195.28491211 246.29757812 -195.28491211 268.07757813 -195.28491211 290.51757812 C-190.33491211 292.00257813 -190.33491211 292.00257813 -185.28491211 293.51757812 C-179.59884429 295.25692068 -173.94395491 297.06293975 -168.30737305 298.95629883 C-166.54493097 299.53798273 -164.77619055 300.10092482 -163.00170898 300.64477539 C-146.6580991 305.67578854 -146.6580991 305.67578854 -142.47225952 312.36637878 C-141.20851665 314.75694646 -140.10397159 317.18433075 -139.07159424 319.68295288 C-137.78343293 322.68708016 -136.16414842 325.50411476 -134.58178711 328.36132812 C-132.79071221 331.71566576 -131.00547033 335.07303527 -129.22241211 338.43164062 C-124.31373873 347.73870293 -124.31373873 347.73870293 -117.97241211 356.08007812 C-116.28491211 358.51757812 -116.28491211 358.51757812 -116.51904297 360.9230957 C-117.30507418 363.58587979 -118.22912625 365.23148845 -119.85131836 367.46679688 C-123.65146108 372.95059027 -126.94601942 378.69511769 -130.20117188 384.51245117 C-131.23409377 386.35086941 -132.28383055 388.17905541 -133.33374023 390.0078125 C-133.99429929 391.18365339 -134.65384317 392.36006529 -135.31225586 393.53710938 C-135.90772217 394.59003174 -136.50318848 395.6429541 -137.11669922 396.7277832 C-138.46768657 399.35654807 -138.46768657 399.35654807 -138.10961914 401.73193359 C-136.75011437 404.67551497 -134.53139161 406.58461938 -132.22241211 408.83007812 C-131.7207251 409.32080811 -131.21903809 409.81153809 -130.70214844 410.31713867 C-127.43753992 413.48568323 -124.07006067 416.49043492 -120.58569336 419.41210938 C-118.58663521 421.24146819 -116.74461219 423.11898393 -114.89038086 425.09179688 C-114.27718994 425.73528076 -113.66399902 426.37876465 -113.03222656 427.04174805 C-111.80065114 428.34141423 -110.58375388 429.65517634 -109.38330078 430.98364258 C-108.5263562 431.88215942 -108.5263562 431.88215942 -107.65209961 432.79882812 C-107.14791504 433.34603516 -106.64373047 433.89324219 -106.12426758 434.45703125 C-103.25252149 436.11284025 -101.42528418 435.35930765 -98.28491211 434.51757812 C-96.00191608 433.57254858 -93.75144166 432.54678017 -91.53100586 431.46289062 C-90.90766861 431.16067596 -90.28433136 430.8584613 -89.6421051 430.54708862 C-88.33191345 429.91015386 -87.02349662 429.26955647 -85.71679688 428.62548828 C-83.72826397 427.64546215 -81.73474564 426.67627249 -79.73999023 425.70898438 C-73.04910792 422.50924493 -73.04910792 422.50924493 -66.61669922 418.83422852 C-63.23110779 416.92254444 -60.03479845 416.95185453 -56.28491211 417.51757812 C-53.27709961 418.81054687 -53.27709961 418.81054687 -50.15991211 420.70507812 C-41.04007726 425.98647802 -31.31856861 429.93443322 -21.63208008 434.03588867 C-20.98903931 434.3095224 -20.34599854 434.58315613 -19.68347168 434.86508179 C-17.91342051 435.6174486 -16.14098589 436.36420085 -14.3684082 437.1105957 C-10.56093708 438.84792398 -7.25442666 440.54806357 -4.28491211 443.51757812 C-3.60229492 445.50683594 -3.60229492 445.50683594 -2.98803711 447.97070312 C-2.75084961 448.90269531 -2.51366211 449.8346875 -2.26928711 450.79492188 C-2.02694336 451.77589844 -1.78459961 452.756875 -1.53491211 453.76757812 C1.38570143 465.4002491 4.55737144 476.93928447 7.71508789 488.51757812 C39.39508789 489.01257813 39.39508789 489.01257813 71.71508789 489.51757812 C72.37508789 486.54757812 73.03508789 483.57757812 73.71508789 480.51757812 C75.39634028 473.4506871 77.19435654 466.41183658 78.9909668 459.37353516 C79.61484191 456.91295151 80.22022606 454.44881304 80.82055664 451.98242188 C81.13637695 450.75652344 81.45219727 449.530625 81.77758789 448.26757812 C82.03668945 447.23117187 82.29579102 446.19476562 82.56274414 445.12695312 C84.98502281 439.64192889 90.19320782 437.67474476 95.49243164 435.52929688 C96.14023087 435.2630098 96.78803009 434.99672272 97.45545959 434.72236633 C99.51805591 433.87539454 101.58480915 433.03930904 103.65258789 432.20507812 C120.26656866 426.56344375 120.26656866 426.56344375 134.71508789 417.51757812 C142.57512726 416.29791684 147.47611137 419.20864423 154.17993164 422.99804688 C159.65289278 426.08417147 165.26229148 428.87713012 170.90258789 431.64257812 C171.90692871 432.15216064 172.91126953 432.66174316 173.94604492 433.18676758 C174.89463379 433.64913818 175.84322266 434.11150879 176.82055664 434.58789062 C177.6677124 435.00828613 178.51486816 435.42868164 179.38769531 435.86181641 C181.67344667 436.75913585 181.67344667 436.75913585 183.64857483 435.75634766 C185.79321037 434.47074767 187.34787105 433.12580462 189.10668945 431.35302734 C189.74705139 430.71251434 190.38741333 430.07200134 191.04718018 429.41207886 C191.72649597 428.72244049 192.40581177 428.03280212 193.10571289 427.32226562 C193.81032654 426.61482208 194.51494019 425.90737854 195.24090576 425.17849731 C197.48704179 422.92117951 199.72611798 420.65700179 201.96508789 418.39257812 C203.48806506 416.85956859 205.01149728 415.32701097 206.53540039 413.79492188 C210.26725604 410.0410324 213.9933414 406.28148898 217.71508789 402.51757812 C216.52277449 398.6842525 215.1801216 395.27154222 213.17602539 391.79492188 C212.43400879 390.50146851 212.43400879 390.50146851 211.67700195 389.18188477 C210.89147949 387.83211548 210.89147949 387.83211548 210.09008789 386.45507812 C209.55609375 385.52493896 209.02209961 384.5947998 208.47192383 383.63647461 C206.10221887 379.53010223 203.70806017 375.45181109 201.14477539 371.46289062 C200.77175293 370.88031494 200.39873047 370.29773926 200.0144043 369.69750977 C199.03786286 368.19225453 198.04130529 366.70003705 197.04321289 365.20898438 C195.35224877 361.78229532 194.96120592 360.30077851 195.71508789 356.51757812 C197.26274902 354.28276574 198.97611399 352.2351894 200.71459961 350.14550781 C204.45517962 345.23171684 207.02166463 339.64832073 209.77758789 334.14257812 C210.9548627 331.82170193 212.13323641 329.50138281 213.31274414 327.18164062 C213.87920654 326.0662793 214.44566895 324.95091797 215.02929688 323.80175781 C223.78051057 306.75305011 223.78051057 306.75305011 233.68554688 303.52099609 C237.5185909 302.25144891 241.33084466 300.9252666 245.14477539 299.59960938 C246.69678923 299.06229922 248.24887378 298.52519329 249.80102539 297.98828125 C252.21136072 297.15444753 254.62117469 296.31924192 257.02954102 295.47973633 C259.37900031 294.66126549 261.73041603 293.8486536 264.08227539 293.03710938 C264.80414032 292.78403519 265.52600525 292.530961 266.26974487 292.2702179 C269.21494997 291.258879 271.57714622 290.51757812 274.71508789 290.51757812 C274.71508789 269.06757813 274.71508789 247.61757813 274.71508789 225.51757812 C271.08508789 224.52757812 267.45508789 223.53757812 263.71508789 222.51757812 C258.8127041 220.95755966 253.96218907 219.2737411 249.11572266 217.54882812 C247.63455905 217.02596839 246.1501028 216.51234831 244.66259766 216.0078125 C229.05230487 210.70910989 229.05230487 210.70910989 224.71508789 203.51757812 C224.20131592 202.77910645 223.68754395 202.04063477 223.15820312 201.27978516 C221.49280712 198.87227394 219.91152366 196.42475433 218.34008789 193.95507812 C217.79481445 193.13072266 217.24954102 192.30636719 216.68774414 191.45703125 C211.65604382 183.56898977 211.65604382 183.56898977 212.71508789 178.51757812 C214.00024414 176.90039062 214.00024414 176.90039062 215.77758789 175.64257812 C220.00890799 172.3956876 223.30653295 168.59955577 226.71508789 164.51757812 C229.66823894 164.84695961 231.27979188 165.08103 233.41259766 167.2199707 C233.9055835 167.94337646 234.39856934 168.66678223 234.90649414 169.41210938 C235.73503906 170.59836914 235.73503906 170.59836914 236.58032227 171.80859375 C237.14041992 172.64068359 237.70051758 173.47277344 238.27758789 174.33007812 C239.40057878 175.96386945 240.52678799 177.59545419 241.65649414 179.22460938 C242.14835205 179.95139893 242.64020996 180.67818848 243.14697266 181.42700195 C246.42787849 185.80103226 249.24875769 188.03841856 254.40649414 189.91992188 C256.13536865 190.55196533 256.13536865 190.55196533 257.89916992 191.19677734 C265.51383921 193.85974023 273.19347706 196.33625374 280.87744141 198.79077148 C283.04352759 199.48446351 285.2056094 200.18963423 287.36743164 200.89648438 C288.01751694 201.10076553 288.66760223 201.30504669 289.33738708 201.51551819 C294.92600707 203.35757576 299.40742108 205.5560779 302.71508789 210.51757812 C302.92059296 213.50610216 303.00877064 216.40220161 303.00561523 219.3918457 C303.01569107 220.75329964 303.01569107 220.75329964 303.02597046 222.14225769 C303.04499983 225.14893031 303.04887734 228.15538024 303.05102539 231.16210938 C303.05745058 233.25095207 303.06417873 235.33979386 303.07119751 237.42863464 C303.08318313 241.81092413 303.08687708 246.19313472 303.08569336 250.57543945 C303.08549026 256.18783264 303.11277777 261.79971896 303.14723778 267.41199207 C303.16949004 271.72802549 303.17353139 276.04393668 303.17247391 280.36002159 C303.17483295 282.42885775 303.18367348 284.49769712 303.19913864 286.56647682 C303.21876164 289.46305278 303.21297457 292.35853288 303.20092773 295.25512695 C303.21216675 296.10781158 303.22340576 296.96049622 303.23498535 297.83901978 C303.17862927 303.17867427 302.35107536 306.33616853 298.71508789 310.51757812 C295.97237514 311.7827918 293.57940193 312.68332166 290.71508789 313.51757812 C289.12229092 314.0413264 287.53028077 314.56747207 285.93896484 315.09570312 C284.19425796 315.65453219 282.44903643 316.21175643 280.70336914 316.76757812 C278.79247881 317.38190321 276.88167401 317.99649443 274.97094727 318.61132812 C271.98965542 319.56857172 269.00779222 320.52388648 266.02441406 321.47460938 C263.12388848 322.39995962 260.22598252 323.33315513 257.32836914 324.26757812 C256.43869949 324.54891602 255.54902985 324.83025391 254.63240051 325.12011719 C247.97490889 327.27666815 243.13833906 328.89203759 239.74243164 335.37695312 C239.23518555 336.32828125 238.72793945 337.27960938 238.20532227 338.25976562 C237.69291992 339.25234375 237.18051758 340.24492188 236.65258789 341.26757812 C235.62049773 343.22094726 234.58795543 345.17407757 233.55493164 347.12695312 C233.0739502 348.05830078 232.59296875 348.98964844 232.09741211 349.94921875 C230.90120143 352.17177904 229.60144133 354.23812326 228.21899414 356.34570312 C226.37295218 359.38186047 226.37295218 359.38186047 227.38745117 362.31396484 C228.81296673 365.75376167 230.50463641 368.77445219 232.45336914 371.94726562 C232.81601364 372.54129181 233.17865814 373.13531799 233.55229187 373.74734497 C234.70509725 375.63260653 235.86619565 377.5125971 237.02758789 379.39257812 C237.79571249 380.64614969 238.56329533 381.90005338 239.33032227 383.15429688 C242.41967426 388.19824899 245.5261643 393.2285379 248.71118164 398.21289062 C250.71508789 401.51757813 250.71508789 401.51757813 251.46508789 404.51757812 C249.39343124 412.80420472 239.45243183 419.91116134 233.58227539 425.74804688 C232.61754646 426.71090444 231.65304273 427.67398768 230.68875122 428.63728333 C228.17110352 431.15114865 225.65046991 433.66199829 223.12915039 436.17218018 C220.568737 438.72233811 218.01116862 441.2753458 215.45336914 443.828125 C210.90898449 448.36290435 206.36286829 452.89593671 201.81243896 457.4246521 C200.11782702 459.11568871 198.43265961 460.81519553 196.75073242 462.51879883 C193.78650788 465.42934168 191.32723719 467.28546682 187.15966797 467.88549805 C182.17427851 467.35300234 178.42636269 465.15163106 174.03930664 462.81835938 C172.14074507 461.84662598 170.24163923 460.87595536 168.34204102 459.90625 C165.3666034 458.370992 162.39671325 456.8269757 159.43603516 455.26342773 C156.56682219 453.75478397 153.68038438 452.28456236 150.78930664 450.81835938 C149.91400803 450.34352615 149.03870941 449.86869293 148.1368866 449.37947083 C143.4397177 446.99092508 143.4397177 446.99092508 138.29959106 446.87179565 C136.03259916 447.63339955 133.8955876 448.53901585 131.71508789 449.51757812 C129.7079157 450.02029756 127.69776914 450.51140927 125.68383789 450.98632812 C114.12716837 454.23918164 114.12716837 454.23918164 105.66601562 462.25012207 C101.81453238 470.55347608 100.40584555 479.83636865 98.92822266 488.80267334 C98.01028227 494.28994716 96.74391244 499.60273084 95.19946289 504.94726562 C94.99863098 505.66383331 94.79779907 506.380401 94.59088135 507.11868286 C92.71531006 513.38453298 92.71531006 513.38453298 89.71508789 515.51757812 C85.7023591 516.85515439 81.82698361 516.69016486 77.64135742 516.71044922 C76.71260803 516.71862671 75.78385864 516.7268042 74.82696533 516.73522949 C71.75061691 516.76006203 68.6743145 516.77659209 65.59790039 516.79101562 C64.02269938 516.79900114 64.02269938 516.79900114 62.41567612 516.80714798 C56.85972575 516.8338674 51.30379778 516.85324812 45.74780273 516.86767578 C40.00522079 516.88434098 34.26321079 516.92913818 28.52084541 516.98004723 C24.10793382 517.01366996 19.69515901 517.02524763 15.2821312 517.03090286 C13.16499321 517.03762666 11.04786457 517.05287784 8.93085098 517.07679367 C5.96929192 517.10834743 3.00928985 517.10849682 0.04760742 517.10107422 C-0.82737396 517.11747955 -1.70235535 517.13388489 -2.60385132 517.15078735 C-6.9567749 517.10610037 -8.73605456 516.94190877 -12.28469849 514.19839478 C-14.72154122 510.93237934 -15.73211413 507.7910077 -16.65991211 503.89257812 C-16.85560791 503.13493164 -17.05130371 502.37728516 -17.25292969 501.59667969 C-17.69332665 499.88501809 -18.12585872 498.17132051 -18.55200195 496.45605469 C-19.68111845 491.9290573 -20.85878506 487.41479417 -22.03149414 482.89892578 C-22.65005068 480.51168914 -23.26443352 478.12336645 -23.87426758 475.73388672 C-24.15802246 474.62609863 -24.44177734 473.51831055 -24.73413086 472.37695312 C-24.98509521 471.39178711 -25.23605957 470.40662109 -25.49462891 469.39160156 C-25.75542236 468.44317383 -26.01621582 467.49474609 -26.28491211 466.51757812 C-26.52540283 465.47150391 -26.76589355 464.42542969 -27.01367188 463.34765625 C-28.71369052 459.56301708 -30.39673051 458.97779915 -34.17553711 457.37695312 C-35.95250977 456.60738281 -35.95250977 456.60738281 -37.76538086 455.82226562 C-39.02177469 455.30375388 -40.27828618 454.78552712 -41.53491211 454.26757812 C-42.77662334 453.73564757 -44.01751981 453.20181081 -45.25756836 452.66601562 C-48.58708834 451.24474708 -51.91710986 449.84556259 -55.28491211 448.51757812 C-56.30077393 448.09017334 -57.31663574 447.66276855 -58.36328125 447.22241211 C-61.98561283 446.34853634 -63.20522713 446.89524011 -66.45288086 448.63085938 C-67.41983887 449.13327148 -68.38679687 449.63568359 -69.38305664 450.15332031 C-70.9122876 450.98331543 -70.9122876 450.98331543 -72.47241211 451.83007812 C-74.61882486 452.94735297 -76.76597048 454.06322093 -78.91381836 455.17773438 C-80.51700928 456.02102295 -80.51700928 456.02102295 -82.15258789 456.88134766 C-86.70054501 459.2570615 -91.29015125 461.53533106 -95.90991211 463.76757812 C-96.67198975 464.14954346 -97.43406738 464.53150879 -98.21923828 464.92504883 C-105.81046101 468.58768338 -105.81046101 468.58768338 -110.28491211 467.51757812 C-113.23434904 465.25644696 -115.70250316 462.61512876 -118.22241211 459.89257812 C-119.58323069 458.46054639 -120.94648814 457.03082801 -122.31225586 455.60351562 C-122.97596191 454.90709961 -123.63966797 454.21068359 -124.32348633 453.49316406 C-126.6174334 451.18265626 -129.02726147 449.08079757 -131.54882812 447.02392578 C-133.91593124 444.97006188 -136.08094263 442.74585105 -138.28491211 440.51757812 C-139.41643446 439.38941253 -140.5489952 438.26228784 -141.68237305 437.13598633 C-145.07454402 433.76155962 -148.46370558 430.38412806 -151.85180664 427.00561523 C-153.31348925 425.54899997 -154.77606243 424.09327785 -156.23950195 422.63842773 C-158.3559355 420.5340705 -160.46916979 418.4265469 -162.58178711 416.31835938 C-163.23902771 415.66628006 -163.89626831 415.01420074 -164.57342529 414.34236145 C-165.17785461 413.73800766 -165.78228394 413.13365387 -166.4050293 412.51098633 C-166.93843933 411.97979691 -167.47184937 411.44860748 -168.02142334 410.90132141 C-170.04092097 408.68961494 -170.29481143 407.42643607 -170.62475586 404.38867188 C-170.19394749 399.48141797 -168.4607145 396.65951897 -165.84741211 392.58007812 C-164.92917605 391.08755293 -164.01254831 389.59403724 -163.09741211 388.09960938 C-162.39551758 386.96579834 -162.39551758 386.96579834 -161.67944336 385.80908203 C-159.47234097 382.18235531 -157.40882073 378.47846017 -155.34741211 374.76757812 C-151.39962163 367.68039164 -151.39962163 367.68039164 -149.46850586 364.93945312 C-147.87151175 361.6716764 -148.44252307 360.02668589 -149.28491211 356.51757812 C-150.64293257 353.64152338 -150.64293257 353.64152338 -152.40991211 350.82226562 C-153.03381836 349.77683594 -153.65772461 348.73140625 -154.30053711 347.65429688 C-155.28280273 346.03974609 -155.28280273 346.03974609 -156.28491211 344.39257812 C-157.58103735 342.24682748 -158.87289813 340.09849353 -160.15991211 337.94726562 C-160.73483398 337.00093262 -161.30975586 336.05459961 -161.90209961 335.07958984 C-163.11602954 332.83047602 -163.82707822 331.01291959 -164.28491211 328.51757812 C-165.41026367 328.31003906 -166.53561523 328.1025 -167.69506836 327.88867188 C-175.56699141 326.13815818 -183.1233 323.24130405 -190.72241211 320.58007812 C-193.80347469 319.50566123 -196.88576071 318.43481251 -199.96850586 317.36523438 C-200.70169037 317.10932526 -201.43487488 316.85341614 -202.1902771 316.5897522 C-206.88917114 314.96083346 -211.60273302 313.4926587 -216.421875 312.25366211 C-218.65602885 311.3709503 -219.77379441 310.3742232 -221.28491211 308.51757812 C-222.62293368 304.50351341 -222.44910755 300.6304251 -222.46191406 296.44384766 C-222.46848526 295.51509827 -222.47505646 294.58634888 -222.48182678 293.62945557 C-222.50155331 290.55309978 -222.51321967 287.47679275 -222.52319336 284.40039062 C-222.52726889 283.35025661 -222.53134441 282.3001226 -222.53554344 281.21816635 C-222.55639932 275.66221056 -222.57070433 270.10627944 -222.58007812 264.55029297 C-222.59115421 258.80779953 -222.62556951 253.06569235 -222.66524982 247.32333565 C-222.69137062 242.91042349 -222.69976583 238.49760411 -222.7033596 234.08462143 C-222.70823565 231.96750143 -222.71987843 229.85038584 -222.7383976 227.73334122 C-222.76269692 224.77194643 -222.76184099 221.81156123 -222.75488281 218.85009766 C-222.76769287 217.97511627 -222.78050293 217.10013489 -222.79370117 216.19863892 C-222.7591218 212.16345901 -222.60227782 210.03782433 -220.45793152 206.52267456 C-217.59443705 203.88046044 -214.63636468 202.94169799 -210.97241211 201.89257812 C-209.3788713 201.39607228 -207.78651824 200.89574572 -206.19506836 200.39257812 C-204.83019287 199.96525391 -204.83019287 199.96525391 -203.43774414 199.52929688 C-197.59955455 197.65586822 -191.80698574 195.65240716 -186.01992798 193.6272583 C-184.61843555 193.1392768 -183.21525305 192.65612122 -181.81039429 192.17791748 C-179.81096484 191.49732487 -177.81716995 190.80212194 -175.82397461 190.10351562 C-174.07914795 189.50095947 -174.07914795 189.50095947 -172.29907227 188.88623047 C-167.19423753 186.56825675 -164.86115456 183.14724452 -162.12084961 178.38476562 C-161.55624023 177.41410156 -160.99163086 176.4434375 -160.40991211 175.44335938 C-159.83241211 174.43660156 -159.25491211 173.42984375 -158.65991211 172.39257812 C-157.50376061 170.38841243 -156.34502922 168.38573212 -155.18334961 166.38476562 C-154.67465332 165.49901855 -154.16595703 164.61327148 -153.6418457 163.70068359 C-152.28491211 161.51757812 -152.28491211 161.51757812 -150.28491211 159.51757812 C-150.66018691 155.83640837 -152.63783469 152.82268777 -154.41772461 149.64257812 C-155.05967773 148.49144531 -155.70163086 147.3403125 -156.36303711 146.15429688 C-157.04531388 144.94204891 -157.7276056 143.72980935 -158.40991211 142.51757812 C-159.06916958 141.33681363 -159.72802733 140.15582586 -160.38647461 138.97460938 C-161.04249632 137.80130462 -161.69874576 136.62812716 -162.35522461 135.45507812 C-162.67896057 134.87516113 -163.00269653 134.29524414 -163.33624268 133.69775391 C-164.95137511 130.82185137 -166.61075081 127.98768351 -168.33862305 125.17773438 C-169.29816895 123.61345703 -169.29816895 123.61345703 -170.27709961 122.01757812 C-170.85572754 121.09976563 -171.43435547 120.18195313 -172.03051758 119.23632812 C-173.4870341 116.0795029 -173.61606817 113.95720186 -173.28491211 110.51757812 C-171.99975586 108.42773438 -171.99975586 108.42773438 -170.22241211 106.58007812 C-169.58045898 105.90203125 -168.93850586 105.22398437 -168.27709961 104.52539062 C-167.61967773 103.8628125 -166.96225586 103.20023437 -166.28491211 102.51757812 C-165.70999023 101.916875 -165.13506836 101.31617188 -164.54272461 100.69726562 C-161.67125982 97.74640549 -158.69313296 94.98137755 -155.56054688 92.31030273 C-151.2452595 88.55047967 -147.27727625 84.51953636 -143.31225586 80.39648438 C-141.82162902 78.86890352 -140.33006506 77.34223666 -138.83764648 75.81640625 C-136.51607521 73.43909556 -134.20040535 71.0571414 -131.89990234 68.65942383 C-129.65757278 66.32634631 -127.39362101 64.01622616 -125.12475586 61.70898438 C-124.4422728 60.98723526 -123.75978973 60.26548615 -123.05662537 59.52186584 C-119.96179405 56.40926827 -118.19656425 54.6949703 -113.81445312 53.84228516 C-109.46289915 54.67485058 -105.92271712 56.16784294 -101.97241211 58.13085938 C-101.19986084 58.50107712 -100.42730957 58.87129486 -99.63134766 59.25273132 C-97.17618362 60.43252272 -94.73053846 61.63066 -92.28491211 62.83007812 C-89.83738536 64.01449763 -87.38805488 65.19512037 -84.93847656 66.37528992 C-83.41974648 67.10872972 -81.90255518 67.84536775 -80.38720703 68.58576965 C-79.00677306 69.25879897 -77.62332936 69.92569943 -76.23657227 70.58560181 C-74.957241 71.19652089 -73.68556779 71.82380291 -72.4230957 72.46884155 C-66.79468523 75.19026126 -63.47698651 74.2234315 -57.72973633 72.37280273 C-54.24942331 71.10466672 -50.81063819 69.73626965 -47.38012695 68.33959961 C-45.90592494 67.75228557 -44.42186385 67.1891126 -42.92895508 66.65112305 C-33.6200315 63.36452086 -33.6200315 63.36452086 -27.54589844 56.05371094 C-26.5504625 52.65327086 -26.04064317 49.21122749 -25.59680176 45.70132446 C-25.07605373 42.05522202 -24.14245932 38.51693473 -23.24975586 34.94726562 C-22.90984984 33.52326602 -22.57195687 32.0987844 -22.23608398 30.67382812 C-22.06906982 29.97 -21.90205566 29.26617187 -21.72998047 28.54101562 C-21.38750035 27.09136431 -21.04738494 25.64115257 -20.70947266 24.19042969 C-20.20893197 22.0451872 -19.6989481 19.90237169 -19.18725586 17.75976562 C-18.89326904 16.51050293 -18.59928223 15.26124023 -18.29638672 13.97412109 C-15.19268134 3.36773425 -10.71511077 -0.09969275 0 0 Z " fill="#1A1F29" transform="translate(453.284912109375,216.482421875)"/>
<path d="M0 0 C4.05321708 0.85218756 5.23402817 2.518255 7.97265625 5.625 C9.292926 6.9053443 10.62321984 8.17539652 11.9609375 9.4375 C13.40259336 10.83307553 14.84399421 12.22891452 16.28515625 13.625 C17.39600586 14.67300781 17.39600586 14.67300781 18.52929688 15.7421875 C19.22861328 16.42539062 19.92792969 17.10859375 20.6484375 17.8125 C21.28692627 18.42480469 21.92541504 19.03710938 22.58325195 19.66796875 C24.37894445 22.1972731 24.43164255 23.58376159 23.97265625 26.625 C22.89038086 28.2590332 22.89038086 28.2590332 21.375 29.67578125 C20.82005859 30.21009766 20.26511719 30.74441406 19.69335938 31.29492188 C19.10490234 31.83697266 18.51644531 32.37902344 17.91015625 32.9375 C14.43777347 36.21852299 11.04837707 39.4726334 7.96313477 43.12573242 C3.60292517 48.14216097 -1.09733601 52.80815451 -5.81329346 57.4861145 C-7.43967644 59.09953514 -9.06274071 60.71623271 -10.68505859 62.33374023 C-14.71197798 66.34741101 -18.74437038 70.35556835 -22.77661133 74.3638916 C-26.19562995 77.76305724 -29.61250774 81.16434867 -33.02667236 84.56838989 C-34.61255381 86.14787066 -36.20145471 87.72426797 -37.79052734 89.30053711 C-42.58420665 94.0701806 -47.27488652 98.87661646 -51.65834045 104.02990723 C-53.49258545 106.16707588 -55.45655615 108.15194551 -57.46484375 110.125 C-58.14417969 110.7953125 -58.82351563 111.465625 -59.5234375 112.15625 C-60.01972656 112.6409375 -60.51601563 113.125625 -61.02734375 113.625 C-60.35316406 114.29789062 -59.67898438 114.97078125 -58.984375 115.6640625 C-56.82898406 117.8186953 -54.68269325 119.98210743 -52.5390625 122.1484375 C-51.26436995 123.43233836 -49.98962941 124.71619159 -48.71484375 126 C-47.77608398 126.95132813 -47.77608398 126.95132813 -46.81835938 127.921875 C-45.87573242 128.86933594 -45.87573242 128.86933594 -44.9140625 129.8359375 C-44.08201294 130.67584229 -44.08201294 130.67584229 -43.2331543 131.53271484 C-41.30504695 133.36158921 -39.33444559 135.09490642 -37.3215332 136.82861328 C-32.82342158 140.74431281 -28.62552406 144.91749771 -24.43359375 149.15625 C-23.64263306 149.95099731 -22.85167236 150.74574463 -22.03674316 151.5645752 C-18.68715802 154.93035548 -15.34361105 158.30211048 -11.99951172 161.67333984 C-9.54213436 164.14890227 -7.08168317 166.62138083 -4.62109375 169.09375 C-3.87815063 169.84499146 -3.13520752 170.59623291 -2.36975098 171.37023926 C0.94120605 174.69650664 4.27228328 177.93291511 7.8359375 180.98828125 C12.54608962 185.04762218 16.90222209 189.44143035 21.27818298 193.85536194 C22.79077957 195.38093977 24.30666827 196.90318086 25.82336426 198.42468262 C29.58661426 202.20116982 33.34434293 205.98313511 37.10223389 209.76495361 C40.29001293 212.97259868 43.47992667 216.17809295 46.67259216 219.38087463 C48.15236181 220.86703689 49.6290419 222.35621996 51.10559082 223.84558105 C55.72220024 228.478865 60.37475541 232.98994571 65.35449219 237.23292542 C67.49773157 239.07671193 69.49196475 241.04643901 71.47265625 243.0625 C72.14296875 243.74183594 72.81328125 244.42117188 73.50390625 245.12109375 C73.98859375 245.61738281 74.47328125 246.11367188 74.97265625 246.625 C90.29455574 233.67277321 104.35747165 219.36348219 118.49319077 205.14906502 C121.84379275 201.77985202 125.19901816 198.41526727 128.55496216 195.05137634 C138.08265407 185.49975513 147.60407346 175.94189462 157.12158203 166.38012695 C162.40867413 161.06852922 167.69932335 155.76050053 172.9938432 150.4563064 C176.33255575 147.11105418 179.66671594 143.76135004 182.99756408 140.40826809 C185.05728069 138.33686643 187.12112277 136.26961493 189.18618774 134.20354652 C190.60367383 132.78287397 192.01614766 131.357206 193.42849731 129.931427 C194.2663678 129.09486069 195.10423828 128.25829437 195.96749878 127.39637756 C196.69705717 126.66367677 197.42661556 125.93097597 198.17828178 125.17607212 C199.97265625 123.625 199.97265625 123.625 201.97265625 123.625 C202.31296875 122.75875 202.31296875 122.75875 202.66015625 121.875 C204.30303648 119.0586339 206.36798852 117.54422886 208.97265625 115.625 C207.63315504 112.77619054 206.11540169 110.31753603 204.22265625 107.8046875 C203.69671875 107.10472656 203.17078125 106.40476562 202.62890625 105.68359375 C202.08234375 104.96300781 201.53578125 104.24242187 200.97265625 103.5 C200.1528125 102.40751953 200.1528125 102.40751953 199.31640625 101.29296875 C196.32267863 97.30661757 196.32267863 97.30661757 192.97265625 93.625 C192.84765625 90 192.84765625 90 192.97265625 86.625 C194.29265625 85.965 195.61265625 85.305 196.97265625 84.625 C196.97265625 83.965 196.97265625 83.305 196.97265625 82.625 C198.44140625 81.1796875 198.44140625 81.1796875 200.47265625 79.5 C203.57879278 76.8978574 206.31334558 74.18628553 209.03515625 71.1875 C211.80779477 68.3931153 212.68279923 67.6888668 216.66015625 66.8125 C223.13220258 68.39998306 227.05593113 75.02905247 231.09765625 80.0625 C231.66315186 80.76189697 232.22864746 81.46129395 232.8112793 82.18188477 C236.9767343 87.3471423 241.08303479 92.5576133 245.13452148 97.81274414 C247.80231322 101.24446064 250.62265463 104.38256413 253.66015625 107.5 C256.05170224 110.173195 257.54635018 112.07042815 257.91015625 115.6875 C256.38884945 125.59860929 242.53794263 135.18457186 235.68359375 142.01171875 C234.29288125 143.40056226 232.90239226 144.78962962 231.51211548 146.1789093 C227.86997141 149.81725664 224.22483605 153.45259236 220.57904053 157.08728027 C216.87249576 160.78358512 213.16878498 164.48272719 209.46484375 168.18164062 C203.48348522 174.15423709 197.50042762 180.12512492 191.51506042 186.09370422 C190.98821152 186.61910797 190.46136261 187.14451172 189.91854858 187.68583679 C189.42027935 188.18218313 188.92201012 188.67852947 188.40864182 189.18991661 C187.02381565 190.57387274 185.64683502 191.96566569 184.27017212 193.35774231 C181.63683777 195.95639577 178.81410603 198.25712518 175.97265625 200.625 C174.29333786 202.27891817 172.62947122 203.94853953 170.97265625 205.625 C169.77008289 206.83294728 168.56702278 208.04041009 167.36360168 209.24751282 C165.95177301 210.66539614 164.53996506 212.08330009 163.12817383 213.5012207 C155.22214988 221.44002969 147.31098958 229.37370165 139.39685535 237.30442524 C134.61494331 242.09663557 129.83492842 246.89071002 125.05932617 251.68920898 C120.42865968 256.34206475 115.79266776 260.98957373 111.15347862 265.63393211 C109.39320361 267.3978834 107.63468058 269.16358492 105.87800026 270.9311161 C103.41140158 273.4123476 100.93849677 275.88713263 98.46411133 278.3605957 C97.75050949 279.08138809 97.03690765 279.80218048 96.30168152 280.54481506 C81.94363525 294.84549051 81.94363525 294.84549051 74.88671875 295.62890625 C68.61972289 295.07175832 65.33399161 291.05828307 61.34765625 286.5625 C59.94129784 285.04845916 58.53245795 283.53671936 57.12109375 282.02734375 C56.21109619 281.01401978 56.21109619 281.01401978 55.28271484 279.98022461 C53.34651215 278.00616549 51.38473752 276.22407903 49.29150391 274.42407227 C44.54305079 270.31393771 40.13888456 265.8990523 35.72265625 261.4375 C34.43633301 260.14549683 34.43633301 260.14549683 33.12402344 258.82739258 C29.48770686 255.17486017 25.85741254 251.51636365 22.2265625 247.85839844 C19.56068028 245.17434844 16.89173815 242.49336759 14.22265625 239.8125 C13.4140918 238.99563721 12.60552734 238.17877441 11.77246094 237.3371582 C8.2641292 233.81386167 4.74243975 230.36871292 0.97265625 227.125 C-3.67633473 223.12477238 -7.96473875 218.79436549 -12.27734375 214.4375 C-13.56366699 213.14549683 -13.56366699 213.14549683 -14.87597656 211.82739258 C-18.51229314 208.17486017 -22.14258746 204.51636365 -25.7734375 200.85839844 C-28.43931972 198.17434844 -31.10826185 195.49336759 -33.77734375 192.8125 C-34.5859082 191.99563721 -35.39447266 191.17877441 -36.22753906 190.3371582 C-39.71333348 186.83649512 -43.20942934 183.41160762 -46.95898438 180.19335938 C-52.02093395 175.83736416 -56.67262644 171.0846926 -61.37109375 166.34375 C-62.34910794 165.36131622 -63.32742626 164.37918512 -64.30603027 163.39733887 C-67.90233359 159.78780682 -71.49310971 156.17279294 -75.08404541 152.55792236 C-78.13089954 149.4911925 -81.17989501 146.42662086 -84.23164368 143.36476135 C-85.64493004 141.94508843 -87.05511486 140.52233001 -88.46520996 139.0994873 C-92.94269803 134.60508671 -97.46043088 130.24187444 -102.29919434 126.13659668 C-109.74172338 119.62668377 -109.74172338 119.62668377 -110.50390625 114.28515625 C-109.91117272 109.73276838 -108.05679911 107.65020479 -104.90234375 104.5625 C-104.36971924 104.01376221 -103.83709473 103.46502441 -103.28833008 102.8996582 C-101.55302948 101.12216185 -99.79311668 99.37219588 -98.02734375 97.625 C-96.80419951 96.40152933 -95.58154579 95.17756809 -94.359375 93.953125 C-92.58468717 92.1763194 -90.80750131 90.40322996 -89.01318359 88.64624023 C-86.24973877 85.92786481 -83.61384539 83.17245701 -81.11254883 80.21020508 C-76.37567417 74.77290053 -71.24444925 69.73037025 -66.13021851 64.65270996 C-64.30222196 62.83764434 -62.47751419 61.01932699 -60.65356445 59.20019531 C-56.12578232 54.68568084 -51.59253568 50.17666663 -47.05944824 45.66748047 C-43.21768036 41.84554384 -39.37803673 38.02149624 -35.54110718 34.19470215 C-33.7557883 32.41579745 -31.96745236 30.63996604 -30.17895508 28.86425781 C-24.58074442 23.29118681 -19.13600423 17.65600917 -14.02734375 11.625 C-12.20953844 9.58381068 -10.35285992 7.60370691 -8.46484375 5.625 C-7.57667969 4.67625 -6.68851562 3.7275 -5.7734375 2.75 C-3.02734375 0.625 -3.02734375 0.625 0 0 Z " fill="#181D28" transform="translate(419.02734375,348.375)"/>
<path d="M0 0 C2.14502651 1.80182227 3.93663526 3.51450422 5.8125 5.5625 C6.86650118 6.66726505 7.92249283 7.77013451 8.98046875 8.87109375 C9.49270996 9.40847168 10.00495117 9.94584961 10.53271484 10.49951172 C13.03956832 13.06309267 15.74439812 15.37816043 18.4765625 17.6953125 C21.94787711 20.66818193 21.94787711 20.66818193 22.4375 23.78515625 C21.84820901 28.11539275 20.16182187 29.47758795 17 32.4375 C15.6078125 33.76587891 15.6078125 33.76587891 14.1875 35.12109375 C11.92279724 37.19376669 9.60841666 39.20199678 7.28241539 41.20539284 C3.12054589 44.84494571 -0.80836076 48.67385629 -4.70614624 52.59262085 C-5.43844283 53.32476858 -6.17073941 54.05691631 -6.92522681 54.81125033 C-9.35797004 57.24468343 -11.78712845 59.68166277 -14.21630859 62.11865234 C-15.9676929 63.87195735 -17.71930616 65.62503369 -19.47113037 67.37789917 C-23.23205233 71.14197412 -26.99147402 74.9075378 -30.7495842 78.6744194 C-36.18474283 84.12217061 -41.62317255 89.5666471 -47.0624835 95.01025207 C-55.89123691 103.84605847 -64.71811803 112.68373252 -73.54345703 121.52294922 C-74.07073783 122.05105783 -74.59801862 122.57916644 -75.14127763 123.12327833 C-78.88590011 126.87380394 -82.63045606 130.62439597 -86.375 134.375 C-90.66287397 138.66980825 -94.95078275 142.96458173 -99.23876953 147.25927734 C-99.76722215 147.78855809 -100.29567477 148.31783883 -100.8401411 148.86315839 C-109.64143158 157.67811926 -118.44467429 166.49112797 -127.24931967 175.30273783 C-132.67815902 180.73606259 -138.10520997 186.17116218 -143.52998348 191.60854645 C-147.67822394 195.76618303 -151.82897678 199.92130485 -155.98067474 204.07548904 C-157.68681004 205.78350415 -159.39207687 207.49238724 -161.09643173 209.20217896 C-163.41392689 211.5268369 -165.7344378 213.84844117 -168.05575562 216.16928101 C-168.73706177 216.85418212 -169.41836793 217.53908324 -170.12031972 218.24473894 C-170.73941264 218.86245751 -171.35850556 219.48017607 -171.99635887 220.11661339 C-172.5319846 220.65316091 -173.06761033 221.18970843 -173.61946714 221.74251497 C-175.80526578 223.73349189 -177.20391229 224.03281635 -180.1796875 224.51171875 C-185.67675494 223.77540399 -187.65374402 220.91315954 -191.125 216.8125 C-192.31450175 215.464312 -193.5045949 214.11664553 -194.6953125 212.76953125 C-195.25379883 212.11678223 -195.81228516 211.4640332 -196.38769531 210.79150391 C-198.13013633 208.78254484 -198.13013633 208.78254484 -200.9296875 206.44921875 C-203 204 -203 204 -203.59786987 200.86705017 C-202.71533906 195.15879979 -199.54995241 192.60685146 -195.50439453 188.67797852 C-194.70781433 187.87716354 -193.91123413 187.07634857 -193.09051514 186.25126648 C-190.4545096 183.60994316 -187.79433902 180.99449153 -185.1328125 178.37890625 C-183.29776271 176.55183639 -181.46411131 174.72336104 -179.63180542 172.89353943 C-175.79023193 169.0642087 -171.93805161 165.24608966 -168.07568359 161.43774414 C-163.11384813 156.54519659 -158.17301128 151.63199937 -153.23867989 146.71173191 C-148.54416491 142.03079751 -143.83849567 137.3611107 -139.1328125 132.69140625 C-138.23016788 131.79403811 -137.32752327 130.89666996 -136.39752579 129.97210884 C-133.8551158 127.44806028 -131.30596658 124.93104172 -128.75439453 122.41625977 C-127.99482452 121.66049652 -127.23525452 120.90473328 -126.45266724 120.12606812 C-125.75995728 119.4462236 -125.06724731 118.76637909 -124.35354614 118.06593323 C-123.44926723 117.17252653 -123.44926723 117.17252653 -122.52672005 116.26107121 C-121 115 -121 115 -119 115 C-118.731875 114.360625 -118.46375 113.72125 -118.1875 113.0625 C-117 111 -117 111 -114 110 C-114 109.34 -114 108.68 -114 108 C-112.56640625 106.625 -112.56640625 106.625 -110.5625 105 C-107.25398277 102.19913885 -104.35723212 99.25972917 -101.5 96 C-98.84386413 92.98125173 -96.20814076 90.20477084 -93.125 87.625 C-88.5298373 83.75732799 -84.61586128 79.32804458 -80.61328125 74.8671875 C-78.14224158 72.15606176 -75.68642244 69.49878475 -73 67 C-72.34 67 -71.68 67 -71 67 C-70.78601563 66.44828125 -70.57203125 65.8965625 -70.3515625 65.328125 C-68.5439096 62.21436452 -66.04557222 60.10301647 -63.375 57.75 C-57.9173892 52.8279236 -52.63603791 47.75745518 -47.4375 42.5625 C-46.75929199 41.88864258 -46.08108398 41.21478516 -45.38232422 40.52050781 C-42.02708356 37.15601943 -38.90575195 33.7694432 -36 30 C-31.49450549 25.16483516 -31.49450549 25.16483516 -28 24 C-27.67 23.34 -27.34 22.68 -27 22 C-26 20 -26 20 -23 19 C-22.67 18.34 -22.34 17.68 -22 17 C-21 15 -21 15 -18 14 C-18 13.34 -18 12.68 -18 12 C-17.34 12 -16.68 12 -16 12 C-15.6596875 11.1646875 -15.6596875 11.1646875 -15.3125 10.3125 C-12.12792246 4.70157766 -6.80408797 -1.04827604 0 0 Z " fill="#171C27" transform="translate(676,292)"/>
<path d="M0 0 C3.14378107 0.41507674 4.12020595 1.26036794 6.35694885 3.47161865 C7.06052521 4.15620651 7.76410156 4.84079437 8.48899841 5.54612732 C9.23191132 6.29602432 9.97482422 7.04592133 10.74024963 7.81854248 C11.51240814 8.58354568 12.28456665 9.34854889 13.0801239 10.13673401 C14.70842511 11.75725195 16.33034516 13.38420327 17.94630432 15.01702881 C20.42803371 17.51798698 22.93768178 19.98824154 25.45118713 22.45721436 C27.02848157 24.03421846 28.60406261 25.61293854 30.17774963 27.19354248 C30.93280792 27.93331833 31.68786621 28.67309418 32.46580505 29.43528748 C33.15046844 30.13563614 33.83513184 30.8359848 34.5405426 31.55755615 C35.14945343 32.16822433 35.75836426 32.77889252 36.38572693 33.4080658 C37.56056213 35.33807373 37.56056213 35.33807373 37.438797 37.84954834 C36.48675527 40.54720942 35.51880077 41.90178195 33.52882385 43.93499756 C32.89080841 44.59530472 32.25279297 45.25561188 31.59544373 45.93592834 C30.90072968 46.63195663 30.20601563 47.32798492 29.49024963 48.04510498 C28.77579681 48.77049973 28.06134399 49.49589447 27.32524109 50.24327087 C25.81221268 51.77215248 24.29382788 53.29574915 22.77052307 54.81439209 C20.44545479 57.1406759 18.15124646 59.49468424 15.85743713 61.85174561 C14.38267032 63.33465339 12.9061635 64.81583317 11.42774963 66.29510498 C10.74518097 67.00125443 10.0626123 67.70740387 9.35935974 68.43495178 C6.12744209 71.60595296 4.37237411 73.18285481 -0.16282654 74.04998779 C-4.13879681 73.186123 -5.22844939 72.1492793 -7.73240662 68.99041748 C-12.45564792 63.3075017 -17.51714586 58.11183858 -22.75193787 52.90057373 C-24.0716156 51.57509521 -24.0716156 51.57509521 -25.41795349 50.22283936 C-26.26680115 49.37528076 -27.1156488 48.52772217 -27.99021912 47.65447998 C-28.74987976 46.89594727 -29.50954041 46.13741455 -30.29222107 45.355896 C-32.36864572 43.30911282 -32.36864572 43.30911282 -34.67063904 41.77142334 C-36.43943787 40.33807373 -36.43943787 40.33807373 -37.18943787 37.08807373 C-36.37900148 33.03589179 -36.22093652 32.81308885 -33.21678162 30.44354248 C-29.28362465 27.15731509 -25.71001345 23.64110287 -22.14646912 19.96697998 C-21.01046025 18.80481308 -19.87439166 17.64270457 -18.73826599 16.48065186 C-16.98124303 14.6801419 -15.22847355 12.87614944 -13.48558044 11.06195068 C-11.7797252 9.28965511 -10.0585044 7.53357827 -8.33396912 5.77947998 C-7.55724602 4.95934166 -7.55724602 4.95934166 -6.76483154 4.12263489 C-3.09832401 0.42938661 -3.09832401 0.42938661 0 0 Z " fill="#03AAE8" transform="translate(455.43943786621094,400.66192626953125)"/>
<path d="M0 0 C0.99 0.33 1.98 0.66 3 1 C-21.35459922 25.37749084 -45.7118339 49.75234499 -70.07260392 74.12366925 C-72.94897504 77.00129107 -75.82532434 79.87893469 -78.70166016 82.7565918 C-79.27428433 83.32947828 -79.8469085 83.90236476 -80.43688492 84.49261145 C-89.70722702 93.76730418 -98.97580076 103.04376216 -108.24372156 112.32087436 C-117.75434077 121.84084691 -127.26685932 131.35891849 -136.78114164 140.87523013 C-142.65132375 146.74678397 -148.5200215 152.61981341 -154.38682584 158.49474231 C-158.41070166 162.52390631 -162.43642184 166.55122141 -166.46359165 170.57709303 C-168.78656462 172.89942587 -171.10844565 175.22283213 -173.42868805 177.54789352 C-175.9466232 180.07080185 -178.46762307 182.5906079 -180.9894104 185.10966492 C-181.71899542 185.84216278 -182.44858045 186.57466065 -183.20027411 187.32935542 C-186.98631607 191.10432415 -190.83044523 194.65203849 -195 198 C-194.41536506 194.54859851 -193.27635484 192.90143862 -190.81813049 190.44390869 C-190.13809967 189.75686356 -189.45806885 189.06981842 -188.75743103 188.36195374 C-188.00675858 187.61892502 -187.25608612 186.8758963 -186.48266602 186.11035156 C-185.69569336 185.31972824 -184.9087207 184.52910492 -184.09790039 183.71452332 C-181.4905888 181.09909514 -178.87255874 178.49469454 -176.25390625 175.890625 C-174.44357575 174.08081289 -172.63376274 172.27048299 -170.82444763 170.45965576 C-167.03016221 166.6654601 -163.23092451 162.87632567 -159.42749023 159.09130859 C-155.02620079 154.71120915 -150.63383049 150.32232131 -146.24624306 145.92849946 C-142.02804685 141.70461602 -137.80415961 137.48646312 -133.57755852 133.27098846 C-131.7776 131.47489098 -129.97900229 129.67742874 -128.1817646 127.8786087 C-125.67498122 125.37145642 -123.16183014 122.8708741 -120.64672852 120.37207031 C-119.89808029 119.62094467 -119.14943207 118.86981903 -118.37809753 118.09593201 C-117.69524689 117.42016617 -117.01239624 116.74440033 -116.30885315 116.04815674 C-115.41758398 115.15996687 -115.41758398 115.15996687 -114.50830936 114.25383377 C-113 113 -113 113 -111 113 C-110.731875 112.360625 -110.46375 111.72125 -110.1875 111.0625 C-109 109 -109 109 -106 108 C-106 107.34 -106 106.68 -106 106 C-104.56640625 104.625 -104.56640625 104.625 -102.5625 103 C-99.25398277 100.19913885 -96.35723212 97.25972917 -93.5 94 C-90.84386413 90.98125173 -88.20814076 88.20477084 -85.125 85.625 C-80.5298373 81.75732799 -76.61586128 77.32804458 -72.61328125 72.8671875 C-70.14224158 70.15606176 -67.68642244 67.49878475 -65 65 C-64.34 65 -63.68 65 -63 65 C-62.78601563 64.44828125 -62.57203125 63.8965625 -62.3515625 63.328125 C-60.5439096 60.21436452 -58.04557222 58.10301647 -55.375 55.75 C-49.9173892 50.8279236 -44.63603791 45.75745518 -39.4375 40.5625 C-38.75929199 39.88864258 -38.08108398 39.21478516 -37.38232422 38.52050781 C-34.02708356 35.15601943 -30.90575195 31.7694432 -28 28 C-23.49450549 23.16483516 -23.49450549 23.16483516 -20 22 C-19.67 21.34 -19.34 20.68 -19 20 C-18 18 -18 18 -15 17 C-14.67 16.34 -14.34 15.68 -14 15 C-13 13 -13 13 -10 12 C-10 11.34 -10 10.68 -10 10 C-9.34 10 -8.68 10 -8 10 C-7.6596875 9.1646875 -7.6596875 9.1646875 -7.3125 8.3125 C-5.63848923 5.36305245 -3.45043651 3.3247731 -1 1 C-0.67 0.67 -0.34 0.34 0 0 Z " fill="#2B2F39" transform="translate(668,294)"/>
<path d="M0 0 C0.66 0.66 1.32 1.32 2 2 C-7.24 11.24 -16.48 20.48 -26 30 C-26.33 29.01 -26.66 28.02 -27 27 C-18.09 18.09 -9.18 9.18 0 0 Z " fill="#252A34" transform="translate(363,403)"/>
<path d="M0 0 C2.12109375 0.41162109 2.12109375 0.41162109 4 1 C3.52691406 1.40162354 3.05382812 1.80324707 2.56640625 2.21704102 C-2.86809411 6.89343917 -7.96039449 11.8411225 -13 16.9375 C-13.77472656 17.71673828 -14.54945313 18.49597656 -15.34765625 19.29882812 C-17.23410757 21.1969242 -19.11816245 23.09733149 -21 25 C-21 20.68628359 -18.39811562 18.82720606 -15.5625 15.875 C-15.01916016 15.30185059 -14.47582031 14.72870117 -13.91601562 14.13818359 C-12.80960709 12.97489448 -11.69974433 11.81488079 -10.58642578 10.65820312 C-9.15245731 9.15935519 -7.74450024 7.63572713 -6.33984375 6.109375 C-5.56769531 5.28953125 -4.79554688 4.4696875 -4 3.625 C-3.319375 2.89539063 -2.63875 2.16578125 -1.9375 1.4140625 C-1.298125 0.94742187 -0.65875 0.48078125 0 0 Z " fill="#262A34" transform="translate(416,349)"/>
<path d="M0 0 C2.4375 0.375 2.4375 0.375 5 1 C5.33 1.66 5.66 2.32 6 3 C5.30261719 2.88269531 4.60523438 2.76539063 3.88671875 2.64453125 C-0.33041108 3.16382599 -2.38992121 5.73776612 -5.1875 8.6875 C-5.72052734 9.21794922 -6.25355469 9.74839844 -6.80273438 10.29492188 C-9.75625132 13.32274114 -11.74931842 15.8643106 -13 20 C-13.33 20 -13.66 20 -14 20 C-14.4375 17.375 -14.4375 17.375 -14 14 C-12.48081579 12.31804606 -10.82074158 11.03540578 -9.0234375 9.65625 C-5.58509317 6.84185233 -2.84001547 3.40111275 0 0 Z " fill="#2F343E" transform="translate(680,381)"/>
</svg>
